HIERARCHY
ROOT pelvis
{
	OFFSET 0.003123 -0.351407 0.012037
	CHANNELS 6 Xposition Yposition Zposition Zrotation Yrotation Xrotation 
	JOINT left_hip
	{
		OFFSET 0.058189 -0.092763 -0.026001
		CHANNELS 3 Zrotation Yrotation Xrotation
		JOINT left_knee
		{
			OFFSET 0.054695 -0.378753 -0.009396
			CHANNELS 3 Zrotation Yrotation Xrotation
			JOINT left_ankle
			{
				OFFSET -0.043453 -0.403059 -0.031876
				CHANNELS 3 Zrotation Yrotation Xrotation
				JOINT left_foot
				{
					OFFSET 0.047257 -0.057997 0.118216
					CHANNELS 3 Zrotation Yrotation Xrotation
					End Site
					{
						OFFSET 0.000000 0.000000 0.000000
					}
				}
			}
		}
	}
	JOINT right_hip
	{
		OFFSET -0.063267 -0.103908 -0.021250
		CHANNELS 3 Zrotation Yrotation Xrotation
		JOINT right_knee
		{
			OFFSET -0.044210 -0.362380 -0.016824
			CHANNELS 3 Zrotation Yrotation Xrotation
			JOINT right_ankle
			{
				OFFSET 0.015417 -0.410728 -0.020192
				CHANNELS 3 Zrotation Yrotation Xrotation
				JOINT right_foot
				{
					OFFSET -0.038812 -0.058328 0.119049
					CHANNELS 3 Zrotation Yrotation Xrotation
					End Site
					{
						OFFSET 0.000000 0.000000 0.000000
					}
				}
			}
		}
	}
	JOINT spine_1
	{
		OFFSET -0.002763 0.109891 -0.027618
		CHANNELS 3 Zrotation Yrotation Xrotation
		JOINT spine_2
		{
			OFFSET 0.009448 0.131853 -0.005940
			CHANNELS 3 Zrotation Yrotation Xrotation
			JOINT spine_3
			{
				OFFSET -0.011330 0.052235 0.028447
				CHANNELS 3 Zrotation Yrotation Xrotation
				JOINT neck
				{
					OFFSET -0.012164 0.165167 -0.031615
					CHANNELS 3 Zrotation Yrotation Xrotation
					JOINT head
					{
						OFFSET 0.024783 0.160452 0.020737
						CHANNELS 3 Zrotation Yrotation Xrotation
						End Site
						{
							OFFSET 0.000000 0.000000 0.000000
						}
					}
				}
				JOINT left_collar
				{
					OFFSET 0.046364 0.084944 -0.007220
					CHANNELS 3 Zrotation Yrotation Xrotation
					JOINT left_shoulder
					{
						OFFSET 0.119239 0.057728 -0.015461
						CHANNELS 3 Zrotation Yrotation Xrotation
						JOINT left_elbow
						{
							OFFSET 0.254123 -0.072151 -0.042459
							CHANNELS 3 Zrotation Yrotation Xrotation
							JOINT left_wrist
							{
								OFFSET 0.251987 0.023221 -0.002472
								CHANNELS 3 Zrotation Yrotation Xrotation
								JOINT left_index_1
								{
									OFFSET 0.101902 -0.008688 0.019351
									CHANNELS 3 Zrotation Yrotation Xrotation
									JOINT left_index_2
									{
										OFFSET 0.030149 -0.011154 0.001151
										CHANNELS 3 Zrotation Yrotation Xrotation
										JOINT left_index_3
										{
											OFFSET 0.006504 -0.021577 -0.002433
											CHANNELS 3 Zrotation Yrotation Xrotation
											End Site
											{
												OFFSET 0.000000 0.000000 0.000000
											}
										}
									}
								}
								JOINT left_middle_1
								{
									OFFSET 0.109398 -0.006328 -0.003981
									CHANNELS 3 Zrotation Yrotation Xrotation
									JOINT left_middle_2
									{
										OFFSET 0.026472 -0.015218 -0.004641
										CHANNELS 3 Zrotation Yrotation Xrotation
										JOINT left_middle_3
										{
											OFFSET 0.005022 -0.023347 -0.001911
											CHANNELS 3 Zrotation Yrotation Xrotation
											End Site
											{
												OFFSET 0.000000 0.000000 0.000000
											}
										}
									}
								}
								JOINT left_pinky_1
								{
									OFFSET 0.084047 -0.014539 -0.043750
									CHANNELS 3 Zrotation Yrotation Xrotation
									JOINT left_pinky_2
									{
										OFFSET 0.012124 -0.014448 -0.005375
										CHANNELS 3 Zrotation Yrotation Xrotation
										JOINT left_pinky_3
										{
											OFFSET 0.003798 -0.018853 0.000167
											CHANNELS 3 Zrotation Yrotation Xrotation
											End Site
											{
												OFFSET 0.000000 0.000000 0.000000
											}
										}
									}
								}
								JOINT left_ring_1
								{
									OFFSET 0.097444 -0.009268 -0.027345
									CHANNELS 3 Zrotation Yrotation Xrotation
									JOINT left_ring_2
									{
										OFFSET 0.023561 -0.016057 -0.001895
										CHANNELS 3 Zrotation Yrotation Xrotation
										JOINT left_ring_3
										{
											OFFSET 0.004257 -0.023548 0.000814
											CHANNELS 3 Zrotation Yrotation Xrotation
											End Site
											{
												OFFSET 0.000000 0.000000 0.000000
											}
										}
									}
								}
								JOINT left_thumb_1
								{
									OFFSET 0.040636 -0.017977 0.025611
									CHANNELS 3 Zrotation Yrotation Xrotation
									JOINT left_thumb_2
									{
										OFFSET 0.021637 -0.017639 0.011623
										CHANNELS 3 Zrotation Yrotation Xrotation
										JOINT left_thumb_3
										{
											OFFSET 0.024002 -0.008356 0.006548
											CHANNELS 3 Zrotation Yrotation Xrotation
											End Site
											{
												OFFSET 0.000000 0.000000 0.000000
											}
										}
									}
								}
							}
						}
					}
				}
				JOINT right_collar
				{
					OFFSET -0.047695 0.084339 -0.013400
					CHANNELS 3 Zrotation Yrotation Xrotation
					JOINT right_shoulder
					{
						OFFSET -0.102578 0.053524 -0.012669
						CHANNELS 3 Zrotation Yrotation Xrotation
						JOINT right_elbow
						{
							OFFSET -0.271150 -0.036492 -0.026467
							CHANNELS 3 Zrotation Yrotation Xrotation
							JOINT right_wrist
							{
								OFFSET -0.249267 -0.004533 -0.015325
								CHANNELS 3 Zrotation Yrotation Xrotation
								JOINT right_index_1
								{
									OFFSET -0.099881 -0.011783 0.019600
									CHANNELS 3 Zrotation Yrotation Xrotation
									JOINT right_index_2
									{
										OFFSET -0.030148 -0.011154 0.001151
										CHANNELS 3 Zrotation Yrotation Xrotation
										JOINT right_index_3
										{
											OFFSET -0.006505 -0.021577 -0.002432
											CHANNELS 3 Zrotation Yrotation Xrotation
											End Site
											{
												OFFSET 0.000000 0.000000 0.000000
											}
										}
									}
								}
								JOINT right_middle_1
								{
									OFFSET -0.107376 -0.009422 -0.003734
									CHANNELS 3 Zrotation Yrotation Xrotation
									JOINT right_middle_2
									{
										OFFSET -0.026472 -0.015218 -0.004641
										CHANNELS 3 Zrotation Yrotation Xrotation
										JOINT right_middle_3
										{
											OFFSET -0.005022 -0.023347 -0.001911
											CHANNELS 3 Zrotation Yrotation Xrotation
											End Site
											{
												OFFSET 0.000000 0.000000 0.000000
											}
										}
									}
								}
								JOINT right_pinky_1
								{
									OFFSET -0.082027 -0.017634 -0.043503
									CHANNELS 3 Zrotation Yrotation Xrotation
									JOINT right_pinky_2
									{
										OFFSET -0.012123 -0.014448 -0.005374
										CHANNELS 3 Zrotation Yrotation Xrotation
										JOINT right_pinky_3
										{
											OFFSET -0.003798 -0.018852 0.000167
											CHANNELS 3 Zrotation Yrotation Xrotation
											End Site
											{
												OFFSET 0.000000 0.000000 0.000000
											}
										}
									}
								}
								JOINT right_ring_1
								{
									OFFSET -0.095423 -0.012362 -0.027099
									CHANNELS 3 Zrotation Yrotation Xrotation
									JOINT right_ring_2
									{
										OFFSET -0.023561 -0.016057 -0.001895
										CHANNELS 3 Zrotation Yrotation Xrotation
										JOINT right_ring_3
										{
											OFFSET -0.004257 -0.023548 0.000816
											CHANNELS 3 Zrotation Yrotation Xrotation
											End Site
											{
												OFFSET 0.000000 0.000000 0.000000
											}
										}
									}
								}
								JOINT right_thumb_1
								{
									OFFSET -0.038613 -0.021074 0.025861
									CHANNELS 3 Zrotation Yrotation Xrotation
									JOINT right_thumb_2
									{
										OFFSET -0.021636 -0.017639 0.011623
										CHANNELS 3 Zrotation Yrotation Xrotation
										JOINT right_thumb_3
										{
											OFFSET -0.024004 -0.008353 0.006547
											CHANNELS 3 Zrotation Yrotation Xrotation
											End Site
											{
												OFFSET 0.000000 0.000000 0.000000
											}
										}
									}
								}
							}
						}
					}
				}
			}
		}
	}
}
MOTION
Frames: 4
Frame Time: 0.050000
0.143246 0.976236 -0.074646 1.934698 -12.525888 -13.949645 -2.397950 4.104296 20.663171 -1.751576 1.530189 -12.488262 1.750872 9.056223 10.280211 0.000000 0.000000 0.000000 -6.868211 0.307063 2.075623 2.559369 0.906859 22.729792 -5.971434 -13.717966 5.622022 0.000000 0.000000 0.000000 -1.679456 -1.141049 19.925714 -6.519208 -1.427897 -15.888561 7.301248 -3.520775 22.337457 3.364761 0.850481 -9.121130 0.000000 0.000000 0.000000 -19.719909 -0.381113 0.768950 -51.586235 -11.598482 -6.889036 2.950939 -21.203871 1.983456 -2.078071 2.420763 -0.501320 -26.042097 3.350980 1.700727 -11.549098 0.803698 -0.559646 0.000000 0.000000 0.000000 -37.745461 -3.516417 -5.738198 -25.593627 2.377027 1.241078 0.000000 0.000000 0.000000 9.968836 -15.122676 -19.945041 -55.670443 4.479125 5.893929 0.000000 0.000000 0.000000 -28.824752 -1.804979 -2.051586 -26.579365 -4.277151 -5.901433 0.000000 0.000000 0.000000 8.401017 14.098009 8.405669 -6.797942 7.000840 3.928948 0.000000 0.000000 0.000000 16.166603 4.494301 -0.980362 50.331108 6.639845 -5.444280 4.545789 30.372362 0.116858 3.087659 -2.421252 4.332739 15.112628 -9.231927 2.683641 6.652899 -0.587120 -1.050455 0.000000 0.000000 0.000000 20.541535 -2.026223 -2.933119 31.757535 4.430192 -15.520129 0.000000 0.000000 0.000000 -15.200093 11.533698 -8.872105 40.669624 2.128249 -4.906862 0.000000 0.000000 0.000000 25.971013 7.612072 -5.461066 28.695581 7.175159 -15.932204 0.000000 0.000000 0.000000 -12.138736 -24.641809 22.193929 0.267710 6.421361 -2.010252 0.000000 0.000000 0.000000 
0.141361 0.976881 -0.074646 1.658241 -12.331195 -13.167560 -2.167586 3.841253 19.749386 -1.554196 1.497235 -12.265691 1.748049 9.040579 10.265278 0.000000 0.000000 0.000000 -7.222695 0.385172 1.093016 2.325549 0.868310 21.653099 -5.590556 -13.302060 5.963715 0.000000 0.000000 0.000000 -1.835536 -1.122696 19.644704 -5.454118 -2.212755 -17.417014 6.896239 -2.981122 23.080102 3.242803 0.616727 -7.783033 0.000000 0.000000 0.000000 -19.699453 -1.124087 1.205355 -51.060742 -11.769709 -6.939310 3.103839 -22.052091 2.033679 -1.136857 3.896978 -1.580555 -27.641879 4.034083 1.911570 -4.861924 -1.426361 -5.706346 0.000000 0.000000 0.000000 -42.322935 -9.011014 -6.740153 -23.561477 1.632020 0.167593 0.000000 0.000000 0.000000 19.113382 -16.785348 -22.719214 -30.295790 8.811795 17.193540 0.000000 0.000000 0.000000 -36.849578 -4.429727 -2.734255 -23.351748 -4.153559 -6.386496 0.000000 0.000000 0.000000 7.976925 15.498923 9.774725 -4.720134 1.837342 1.800488 0.000000 0.000000 0.000000 16.334861 4.428598 -0.929504 50.116461 5.675984 -5.705650 4.826943 31.576906 0.222633 2.902182 -3.027963 4.325112 14.716795 -9.688387 2.816894 4.614606 -0.390408 -0.800679 0.000000 0.000000 0.000000 19.512185 -2.462366 -2.559105 30.109140 4.033554 -14.785494 0.000000 0.000000 0.000000 -15.732531 11.062788 -8.070930 38.515038 1.498995 -3.822683 0.000000 0.000000 0.000000 24.938435 6.587798 -5.011657 28.133741 6.968473 -15.521829 0.000000 0.000000 0.000000 -12.010518 -22.896387 19.863551 1.966896 5.285648 -1.079863 0.000000 0.000000 0.000000 
0.139477 0.977526 -0.077286 1.543844 -13.026029 -13.576710 -1.874253 3.895456 20.104990 -1.538733 1.509184 -12.278216 1.945495 9.452867 10.547345 0.000000 0.000000 0.000000 -7.470900 0.428003 0.820301 1.750357 0.942463 20.640887 -4.647220 -11.932181 6.100105 0.000000 0.000000 0.000000 -1.710748 -1.168246 21.185404 -6.443620 -1.742452 -16.868854 7.939507 -3.235399 22.036892 3.012509 0.803863 -8.642331 0.000000 0.000000 0.000000 -19.072846 -0.765688 1.019783 -51.000065 -13.609104 -6.449800 2.690774 -21.415930 2.033611 0.048094 3.272839 -3.268808 -26.655848 2.461129 1.847105 -7.208126 -0.768532 -3.956938 0.000000 0.000000 0.000000 -43.969723 -10.769027 -6.604116 -23.196837 0.252172 -2.551081 0.000000 0.000000 0.000000 21.056028 -17.455949 -24.779489 -25.223221 7.818632 16.519950 0.000000 0.000000 0.000000 -46.913820 -5.300452 -2.267080 -32.231122 -3.451462 -3.194169 0.000000 0.000000 0.000000 8.139083 16.629676 10.459461 -5.187713 2.035322 1.973971 0.000000 0.000000 0.000000 15.716043 3.857421 -1.324914 50.481955 6.288781 -5.591066 5.249865 31.756549 0.280555 2.642110 -2.811739 4.508267 15.504920 -7.168445 2.133736 3.036627 -0.477986 -0.004561 0.000000 0.000000 0.000000 20.373950 0.100764 -3.686585 33.349114 1.843057 -10.787014 0.000000 0.000000 0.000000 -15.462082 13.086898 -11.303982 41.145909 -2.272480 2.581261 0.000000 0.000000 0.000000 25.819574 5.549548 -4.657961 31.030753 7.665057 -16.152773 0.000000 0.000000 0.000000 -11.464721 -23.011710 20.195402 1.332448 5.030725 -1.203464 0.000000 0.000000 0.000000 
0.136650 0.978815 -0.077286 1.273476 -13.165889 -13.560311 -1.570452 3.864308 20.182402 -1.251879 1.507266 -12.269547 1.811252 9.333020 10.814542 0.000000 0.000000 0.000000 -7.507849 0.437384 0.724719 1.242166 0.929047 19.120576 -3.532119 -10.269256 6.215308 0.000000 0.000000 0.000000 -1.896563 -1.145722 21.095519 -5.685836 -1.936802 -16.494107 7.423966 -3.911250 22.586823 3.136178 1.019389 -9.980219 0.000000 0.000000 0.000000 -18.701367 -0.568172 1.034418 -50.711657 -14.311135 -6.278962 3.399659 -21.888096 1.988773 0.060205 2.200351 -4.607570 -23.254345 0.403304 1.495800 -8.014811 -1.378190 -5.760054 0.000000 0.000000 0.000000 -38.520499 -13.677013 -6.923124 -28.058762 -2.143719 -7.293070 0.000000 0.000000 0.000000 16.531645 -17.802321 -25.892935 -19.655713 6.027212 13.802133 0.000000 0.000000 0.000000 -48.964000 -11.299702 -3.159373 -38.774472 -3.224264 -1.831495 0.000000 0.000000 0.000000 7.452424 14.459374 8.269358 -3.234123 5.836792 2.935935 0.000000 0.000000 0.000000 15.444518 5.533372 -0.220340 50.695772 6.978842 -5.518900 4.263881 32.157854 0.040152 2.429564 -2.597642 3.519696 15.614275 -7.345237 2.179659 5.428069 -0.431095 -0.939511 0.000000 0.000000 0.000000 20.825053 -0.066238 -3.652195 32.524601 2.028570 -10.791444 0.000000 0.000000 0.000000 -14.757917 12.762719 -11.279344 40.244801 -2.265772 2.949677 0.000000 0.000000 0.000000 27.406783 6.297783 -4.913468 28.593435 7.139408 -15.486715 0.000000 0.000000 0.000000 -11.333578 -23.110756 20.128665 1.159761 4.986306 -1.262413 0.000000 0.000000 0.000000 
